<?xml version="1.0" encoding="utf-8"?>
<!-- Svg Vector Icons : http://www.onlinewebfonts.com/icon -->
<!DOCTYPE svg PUBLIC "-//W3C//DTD SVG 1.1//EN" "http://www.w3.org/Graphics/SVG/1.1/DTD/svg11.dtd">
<svg version="1.1" xmlns="http://www.w3.org/2000/svg" xmlns:xlink="http://www.w3.org/1999/xlink" x="0px" y="0px" viewBox="0 0 1000 1000" enable-background="new 0 0 1000 1000" xml:space="preserve">
<metadata> Svg Vector Icons : http://www.onlinewebfonts.com/icon </metadata>
<g><path d="M500,990c-66.1,0-130.3-13-190.7-38.5c-58.4-24.7-110.8-60-155.7-105c-45-45-80.3-97.4-105-155.7C23,630.3,10,566.1,10,500c0-66.1,13-130.3,38.5-190.7c24.7-58.4,60-110.8,105-155.7c45-45,97.4-80.3,155.7-105C369.7,23,433.9,10,500,10c66.1,0,130.3,13,190.7,38.5c58.4,24.7,110.8,60,155.7,105c45,45,80.3,97.4,105,155.7C977,369.7,990,433.9,990,500c0,66.1-13,130.3-38.5,190.7c-24.7,58.4-60,110.8-105,155.7c-45,45-97.4,80.3-155.7,105C630.3,977,566.1,990,500,990z M500,81C269,81,81,269,81,500s188,419,419,419c231.1,0,419-188,419-419S731,81,500,81z"/><path d="M725,460.6c0-16-6.1-32-18.3-44.2c-24.4-24.4-64-24.4-88.3,0L500,534.7L381.7,416.4c-24.4-24.4-64-24.4-88.3,0c-24.4,24.4-24.4,63.9,0,88.3l162.5,162.5c11.7,11.7,27.6,18.3,44.2,18.3c16.6,0,32.5-6.6,44.2-18.3l162.5-162.5C718.9,492.5,725,476.6,725,460.6z"/></g>
</svg>