<svg aria-hidden="true" focusable="false" data-prefix="fad" data-icon="toggle-off" class="svg-inline--fa fa-toggle-off fa-w-18" role="img" xmlns="http://www.w3.org/2000/svg" viewBox="0 0 576 512"><g class="fa-group"><path class="fa-secondary" fill="currentColor" d="M384 64H192C85.1 64 0 150 0 256c0 106 85.1 192 192 192h192c105.1 0 192-85.1 192-192C576 150 489.1 64 384 64zM384 384H192c-70.58 0-128-57.42-128-128s57.42-128 128-128h192c70.58 0 128 57.42 128 128S454.6 384 384 384z"></path><path class="fa-primary" fill="currentColor" d="M288 256c0 53.06-42.94 96-96 96S96 309.1 96 256s42.94-96 96-96S288 202.9 288 256z"></path></g></svg>