<?xml version="1.0" encoding="UTF-8" standalone="no"?>
<!DOCTYPE svg PUBLIC "-//W3C//DTD SVG 1.1//EN" "http://www.w3.org/Graphics/SVG/1.1/DTD/svg11.dtd">
<svg width="100%" height="100%" viewBox="0 0 3900 502" version="1.1" xmlns="http://www.w3.org/2000/svg" xmlns:xlink="http://www.w3.org/1999/xlink" xml:space="preserve" xmlns:serif="http://www.serif.com/" style="fill-rule:evenodd;clip-rule:evenodd;stroke-linejoin:round;stroke-miterlimit:2;">
    <g id="mi-locations-nameplate">
        <g transform="matrix(1,0,0,1,909,490)">
            <g id="Locations">
                <text x="0px" y="0px" style="font-family:'LucidaGrande-Bold', 'Lucida Grande', sans-serif;font-weight:600;font-size:500px;fill:rgb(235,248,255);">Classrooms</text>
            </g>
        </g>
        <g id="MiClassroomsNamePlateBlock-M" transform="matrix(1,0,0,1,15,14)">
            <path d="M336.512,397.01L198.678,208.782L198.678,345.704L253.49,345.704L253.49,480.901L0,480.901L0,345.704L51.385,345.704L51.385,135.197L0,135.197L0,0L199.121,0L336.512,189.598L473.892,0L673,0L673,135.197L621.609,135.197L621.609,345.704L673,345.704L673,480.901L419.528,480.901L419.528,345.704L474.322,345.704L474.322,208.782L336.512,397.01Z" style="fill:rgb(236,201,75);"/>
            <path id="mi-locations-nameplate-map-marker-alt" d="M786.75,467.875C777,453.625 764.437,435.625 749.062,413.875C730.312,386.875 717.937,368.688 711.937,359.313C703.312,345.813 697.5,334.469 694.5,325.282C691.5,316.094 690,305.5 690,293.5C690,274 694.875,256 704.625,239.5C714.375,223.001 727.5,209.876 744,200.126C760.5,190.376 778.5,185.501 798,185.501C817.5,185.501 835.5,190.376 852,200.126C868.5,209.876 881.625,223.001 891.375,239.5C901.124,256 905.999,274 905.999,293.5C905.999,305.5 904.499,316.094 901.499,325.282C898.5,334.469 892.687,345.813 884.062,359.313C878.062,368.688 865.687,386.875 846.937,413.875L809.25,467.875C806.625,471.625 802.875,473.5 798,473.5C793.125,473.5 789.375,471.625 786.75,467.875ZM798,338.5C810.375,338.5 820.968,334.094 829.781,325.282C838.593,316.469 843,305.875 843,293.5C843,281.125 838.593,270.532 829.781,261.719C820.968,252.907 810.375,248.5 798,248.5C785.625,248.5 775.031,252.907 766.219,261.719C757.406,270.532 753,281.125 753,293.5C753,305.875 757.406,316.469 766.219,325.282C775.031,334.094 785.625,338.5 798,338.5Z" style="fill:rgb(235,248,255);"/>
        </g>
    </g>
</svg>
