<?xml version="1.0" encoding="UTF-8"?>
<svg width="3142px" height="502px" viewBox="0 0 3142 502" version="1.1" xmlns="http://www.w3.org/2000/svg" xmlns:xlink="http://www.w3.org/1999/xlink">
    <!-- Generator: Sketch 52.5 (67469) - http://www.bohemiancoding.com/sketch -->
    <title>MiLocations</title>

    <g id="mi-locations-nameplate" stroke="none" stroke-width="1" fill="none" fill-rule="evenodd">
        <text id="Locations" font-family="Lato-Black, Lato" font-size="500" font-weight="700" fill="#fff">
            <tspan x="909" y="490">Locations</tspan>
        </text>
        <g id="MiLocationsNamePlateBlueBlock-M" class='block-m' transform="translate(15.000000, 14.000000)">
            <polygon fill="#00274c" points="336.512463 397.010403 198.678324 208.782105 198.678324 345.703715 253.490435 345.703715 253.490435 480.900574 0 480.900574 0 345.703715 51.3847963 345.703715 51.3847963 135.196858 0 135.196858 0 0 199.120759 0 336.512463 189.598136 473.891704 0 673 0 673 135.196858 621.608972 135.196858 621.608972 345.703715 673 345.703715 673 480.900574 419.528259 480.900574 419.528259 345.703715 474.321676 345.703715 474.321676 208.782105"></polygon>
            <path d="M786.749769,467.874928 C776.999795,453.624964 764.43732,435.625007 749.062359,413.875056 C730.312407,386.875121 717.937436,368.687667 711.937448,359.312686 C703.312471,345.812719 697.499979,334.468993 694.499989,325.281518 C691.499999,316.094042 690,305.500312 690,293.500343 C690,274.000387 694.874991,256.00043 704.624965,239.500472 C714.374939,223.000514 727.499913,209.87554 743.999871,200.125566 C760.499829,190.375592 778.499786,185.500601 797.999743,185.500601 C817.499699,185.500601 835.499656,190.375592 851.999614,200.125566 C868.499572,209.87554 881.624546,223.000514 891.37452,239.500472 C901.124494,256.00043 905.999485,274.000387 905.999485,293.500343 C905.999485,305.500312 904.499486,316.094042 901.499496,325.281518 C898.499506,334.468993 892.687014,345.812719 884.062037,359.312686 C878.062049,368.687667 865.687078,386.875121 846.937126,413.875056 L809.249716,467.874928 C806.624719,471.624922 802.874734,473.499914 797.999743,473.499914 C793.124751,473.499914 789.374766,471.624922 786.749769,467.874928 Z M797.999743,338.500236 C810.374713,338.500236 820.968435,334.093999 829.780917,325.281518 C838.593399,316.469036 842.999635,305.875314 842.999635,293.500343 C842.999635,281.125373 838.593399,270.531651 829.780917,261.719169 C820.968435,252.906687 810.374713,248.500451 797.999743,248.500451 C785.624772,248.500451 775.03105,252.906687 766.218568,261.719169 C757.406086,270.531651 752.99985,281.125373 752.99985,293.500343 C752.99985,305.875314 757.406086,316.469036 766.218568,325.281518 C775.03105,334.093999 785.624772,338.500236 797.999743,338.500236 Z" id="mi-locations-nameplate-map-marker-alt" fill="#FFFFFF"></path>
        </g>
    </g>
</svg>
