<svg aria-hidden="true" focusable="false" data-prefix="far" data-icon="toggle-on" class="svg-inline--fa fa-toggle-on fa-w-18" role="img" xmlns="http://www.w3.org/2000/svg" viewBox="0 0 576 512"><path fill="currentColor" d="M384 64H192c-106 0-192 85.96-192 191.1s85.96 192 192 192h192c106 0 192-85.96 192-192S490 64 384 64zM384 400H192c-79.4 0-144-64.6-144-144S112.6 112 192 112h192c79.4 0 144 64.6 144 144S463.4 400 384 400zM384 160c-53.02 0-96 42.98-96 96s42.98 96 96 96s96-42.98 96-96S437 160 384 160z"></path></svg>